  0
SECTION
  2
HEADER
  9
$ANGBASE
  50
0.0
  9
$ANGDIR
  70
1
  9
$MEASUREMENT
  70
0
  0
ENDSEC
  0
SECTION
  2
TABLES
  0
TABLE
  2
LTYPE
  70
4
  0
LTYPE
  5
40F
  2
CONTINUOUS
  70
0
  3
Solid line
  72
65
  73
0
  40
0.0
  0
LTYPE
  5
410
  2
DASHDOT
 70
0
  3
Dash Dot ____ _ ____ _
 72
65
 73
4
 40
2.0
 49
1.25
 49
-0.25
 49
0.25
 49
-0.25
  0
LTYPE
  5
411
  2
DASHED
 70
0
  3
Dashed __ __ __ __ __
 72
65
 73
2
 40
0.75
 49
0.5
 49
-0.25
  0
LTYPE
  5
43B
  2
DOTTED
 70
0
  3
Dotted .  .  .  .
 72
65
 73
2
 40
0.2
 49
0.0
 49
-0.2
  0
ENDTAB
  0
TABLE
  2
STYLE
  70
4
  0
STYLE
  2
KICAD
  70
0
  40
0
  41
1
  42
1
  50
0
  71
0
  3
isocp.shx
  0
STYLE
  2
KICADB
  70
0
  40
0
  41
1
  42
1
  50
0
  71
0
  3
isocp.shx
  0
STYLE
  2
KICADI
  70
0
  40
0
  41
1
  42
1
  50
15
  71
0
  3
isocp.shx
  0
STYLE
  2
KICADBI
  70
0
  40
0
  41
1
  42
1
  50
15
  71
0
  3
isocp.shx
  0
ENDTAB
  0
TABLE
  2
LAYER
  70
1
  0
LAYER
  2
BLACK
  70
0
  62
7
  6
CONTINUOUS
  0
ENDTAB
  0
ENDSEC
  0
SECTION
  2
ENTITIES
0
LINE
8
BLACK
6
CONTINUOUS
10
8.86809
20
-2.39469
11
14.2677
21
-2.39469
0
LINE
8
BLACK
6
CONTINUOUS
10
14.2677
20
-2.39469
11
14.2681
21
-2.39483
0
LINE
8
BLACK
6
CONTINUOUS
10
14.2681
20
-2.39483
11
14.2684
21
-2.39497
0
LINE
8
BLACK
6
CONTINUOUS
10
14.2684
20
-2.39497
11
14.5184
21
-2.64103
0
LINE
8
BLACK
6
CONTINUOUS
10
14.5184
20
-2.64103
11
14.5184
21
-2.64103
0
LINE
8
BLACK
6
CONTINUOUS
10
14.5184
20
-2.64103
11
14.5184
21
-2.64104
0
LINE
8
BLACK
6
CONTINUOUS
10
14.5184
20
-2.64104
11
14.5186
21
-2.64138
0
LINE
8
BLACK
6
CONTINUOUS
10
14.5186
20
-2.64138
11
14.5187
21
-2.64172
0
LINE
8
BLACK
6
CONTINUOUS
10
14.5187
20
-2.64172
11
14.5187
21
-2.64173
0
LINE
8
BLACK
6
CONTINUOUS
10
14.5187
20
-2.64173
11
14.5187
21
-2.64173
0
LINE
8
BLACK
6
CONTINUOUS
10
14.5187
20
-2.64173
11
14.5187
21
-5.89075
0
LINE
8
BLACK
6
CONTINUOUS
10
14.5187
20
-5.89075
11
14.5187
21
-5.89075
0
LINE
8
BLACK
6
CONTINUOUS
10
14.5187
20
-5.89075
11
14.5181
21
-5.90205
0
LINE
8
BLACK
6
CONTINUOUS
10
14.5181
20
-5.90205
11
14.5162
21
-5.91322
0
LINE
8
BLACK
6
CONTINUOUS
10
14.5162
20
-5.91322
11
14.513
21
-5.9241
0
LINE
8
BLACK
6
CONTINUOUS
10
14.513
20
-5.9241
11
14.5087
21
-5.93456
0
LINE
8
BLACK
6
CONTINUOUS
10
14.5087
20
-5.93456
11
14.5032
21
-5.94447
0
LINE
8
BLACK
6
CONTINUOUS
10
14.5032
20
-5.94447
11
14.4967
21
-5.95371
0
LINE
8
BLACK
6
CONTINUOUS
10
14.4967
20
-5.95371
11
14.4891
21
-5.96215
0
LINE
8
BLACK
6
CONTINUOUS
10
14.4891
20
-5.96215
11
14.4807
21
-5.9697
0
LINE
8
BLACK
6
CONTINUOUS
10
14.4807
20
-5.9697
11
14.4714
21
-5.97625
0
LINE
8
BLACK
6
CONTINUOUS
10
14.4714
20
-5.97625
11
14.4615
21
-5.98173
0
LINE
8
BLACK
6
CONTINUOUS
10
14.4615
20
-5.98173
11
14.4511
21
-5.98606
0
LINE
8
BLACK
6
CONTINUOUS
10
14.4511
20
-5.98606
11
14.4402
21
-5.9892
0
LINE
8
BLACK
6
CONTINUOUS
10
14.4402
20
-5.9892
11
14.429
21
-5.9911
0
LINE
8
BLACK
6
CONTINUOUS
10
14.429
20
-5.9911
11
14.4177
21
-5.99173
0
LINE
8
BLACK
6
CONTINUOUS
10
14.4177
20
-5.99173
11
14.4177
21
-5.99173
0
LINE
8
BLACK
6
CONTINUOUS
10
14.4177
20
-5.99173
11
14.4177
21
-5.99173
0
LINE
8
BLACK
6
CONTINUOUS
10
14.4177
20
-5.99173
11
14.2427
21
-5.99173
0
LINE
8
BLACK
6
CONTINUOUS
10
14.2427
20
-5.99173
11
14.2426
21
-5.9917
0
LINE
8
BLACK
6
CONTINUOUS
10
14.2426
20
-5.9917
11
14.2425
21
-5.99173
0
LINE
8
BLACK
6
CONTINUOUS
10
14.2425
20
-5.99173
11
14.2365
21
-5.99173
0
LINE
8
BLACK
6
CONTINUOUS
10
14.2365
20
-5.99173
11
14.2246
21
-5.99318
0
LINE
8
BLACK
6
CONTINUOUS
10
14.2246
20
-5.99318
11
14.213
21
-5.99604
0
LINE
8
BLACK
6
CONTINUOUS
10
14.213
20
-5.99604
11
14.2018
21
-6.00029
0
LINE
8
BLACK
6
CONTINUOUS
10
14.2018
20
-6.00029
11
14.1912
21
-6.00586
0
LINE
8
BLACK
6
CONTINUOUS
10
14.1912
20
-6.00586
11
14.1813
21
-6.01266
0
LINE
8
BLACK
6
CONTINUOUS
10
14.1813
20
-6.01266
11
14.1724
21
-6.02061
0
LINE
8
BLACK
6
CONTINUOUS
10
14.1724
20
-6.02061
11
14.1644
21
-6.02957
0
LINE
8
BLACK
6
CONTINUOUS
10
14.1644
20
-6.02957
11
14.1576
21
-6.03943
0
LINE
8
BLACK
6
CONTINUOUS
10
14.1576
20
-6.03943
11
14.1521
21
-6.05004
0
LINE
8
BLACK
6
CONTINUOUS
10
14.1521
20
-6.05004
11
14.1478
21
-6.06124
0
LINE
8
BLACK
6
CONTINUOUS
10
14.1478
20
-6.06124
11
14.1449
21
-6.07287
0
LINE
8
BLACK
6
CONTINUOUS
10
14.1449
20
-6.07287
11
14.1435
21
-6.08476
0
LINE
8
BLACK
6
CONTINUOUS
10
14.1435
20
-6.08476
11
14.1435
21
-6.09075
0
LINE
8
BLACK
6
CONTINUOUS
10
14.1435
20
-6.09075
11
14.1435
21
-6.09075
0
LINE
8
BLACK
6
CONTINUOUS
10
14.1435
20
-6.09075
11
14.1435
21
-6.91575
0
LINE
8
BLACK
6
CONTINUOUS
10
14.1435
20
-6.91575
11
14.1435
21
-6.91575
0
LINE
8
BLACK
6
CONTINUOUS
10
14.1435
20
-6.91575
11
14.1429
21
-6.92705
0
LINE
8
BLACK
6
CONTINUOUS
10
14.1429
20
-6.92705
11
14.141
21
-6.93822
0
LINE
8
BLACK
6
CONTINUOUS
10
14.141
20
-6.93822
11
14.1378
21
-6.9491
0
LINE
8
BLACK
6
CONTINUOUS
10
14.1378
20
-6.9491
11
14.1335
21
-6.95956
0
LINE
8
BLACK
6
CONTINUOUS
10
14.1335
20
-6.95956
11
14.128
21
-6.96947
0
LINE
8
BLACK
6
CONTINUOUS
10
14.128
20
-6.96947
11
14.1215
21
-6.97871
0
LINE
8
BLACK
6
CONTINUOUS
10
14.1215
20
-6.97871
11
14.1139
21
-6.98715
0
LINE
8
BLACK
6
CONTINUOUS
10
14.1139
20
-6.98715
11
14.1055
21
-6.9947
0
LINE
8
BLACK
6
CONTINUOUS
10
14.1055
20
-6.9947
11
14.0962
21
-7.00125
0
LINE
8
BLACK
6
CONTINUOUS
10
14.0962
20
-7.00125
11
14.0863
21
-7.00673
0
LINE
8
BLACK
6
CONTINUOUS
10
14.0863
20
-7.00673
11
14.0759
21
-7.01106
0
LINE
8
BLACK
6
CONTINUOUS
10
14.0759
20
-7.01106
11
14.065
21
-7.0142
0
LINE
8
BLACK
6
CONTINUOUS
10
14.065
20
-7.0142
11
14.0538
21
-7.0161
0
LINE
8
BLACK
6
CONTINUOUS
10
14.0538
20
-7.0161
11
14.0425
21
-7.01673
0
LINE
8
BLACK
6
CONTINUOUS
10
14.0425
20
-7.01673
11
14.0425
21
-7.01673
0
LINE
8
BLACK
6
CONTINUOUS
10
14.0425
20
-7.01673
11
14.0425
21
-7.01673
0
LINE
8
BLACK
6
CONTINUOUS
10
14.0425
20
-7.01673
11
8.86732
21
-7.01673
0
LINE
8
BLACK
6
CONTINUOUS
10
8.86732
20
-7.01673
11
8.86732
21
-7.01673
0
LINE
8
BLACK
6
CONTINUOUS
10
8.86732
20
-7.01673
11
8.86732
21
-7.01673
0
LINE
8
BLACK
6
CONTINUOUS
10
8.86732
20
-7.01673
11
8.85602
21
-7.0161
0
LINE
8
BLACK
6
CONTINUOUS
10
8.85602
20
-7.0161
11
8.84486
21
-7.0142
0
LINE
8
BLACK
6
CONTINUOUS
10
8.84486
20
-7.0142
11
8.83398
21
-7.01106
0
LINE
8
BLACK
6
CONTINUOUS
10
8.83398
20
-7.01106
11
8.82352
21
-7.00673
0
LINE
8
BLACK
6
CONTINUOUS
10
8.82352
20
-7.00673
11
8.81361
21
-7.00125
0
LINE
8
BLACK
6
CONTINUOUS
10
8.81361
20
-7.00125
11
8.80438
21
-6.99469
0
LINE
8
BLACK
6
CONTINUOUS
10
8.80438
20
-6.99469
11
8.79594
21
-6.98715
0
LINE
8
BLACK
6
CONTINUOUS
10
8.79594
20
-6.98715
11
8.78839
21
-6.9787
0
LINE
8
BLACK
6
CONTINUOUS
10
8.78839
20
-6.9787
11
8.78184
21
-6.96947
0
LINE
8
BLACK
6
CONTINUOUS
10
8.78184
20
-6.96947
11
8.77637
21
-6.95956
0
LINE
8
BLACK
6
CONTINUOUS
10
8.77637
20
-6.95956
11
8.77204
21
-6.9491
0
LINE
8
BLACK
6
CONTINUOUS
10
8.77204
20
-6.9491
11
8.7689
21
-6.93822
0
LINE
8
BLACK
6
CONTINUOUS
10
8.7689
20
-6.93822
11
8.76701
21
-6.92705
0
LINE
8
BLACK
6
CONTINUOUS
10
8.76701
20
-6.92705
11
8.76638
21
-6.91575
0
LINE
8
BLACK
6
CONTINUOUS
10
8.76638
20
-6.91575
11
8.76638
21
-6.69055
0
LINE
8
BLACK
6
CONTINUOUS
10
8.76638
20
-6.69055
11
8.76638
21
-6.68123
0
LINE
8
BLACK
6
CONTINUOUS
10
8.76638
20
-6.68123
11
8.76499
21
-6.66265
0
LINE
8
BLACK
6
CONTINUOUS
10
8.76499
20
-6.66265
11
8.76221
21
-6.64422
0
LINE
8
BLACK
6
CONTINUOUS
10
8.76221
20
-6.64422
11
8.75806
21
-6.62606
0
LINE
8
BLACK
6
CONTINUOUS
10
8.75806
20
-6.62606
11
8.75257
21
-6.60825
0
LINE
8
BLACK
6
CONTINUOUS
10
8.75257
20
-6.60825
11
8.74576
21
-6.5909
0
LINE
8
BLACK
6
CONTINUOUS
10
8.74576
20
-6.5909
11
8.73767
21
-6.57411
0
LINE
8
BLACK
6
CONTINUOUS
10
8.73767
20
-6.57411
11
8.72836
21
-6.55797
0
LINE
8
BLACK
6
CONTINUOUS
10
8.72836
20
-6.55797
11
8.71786
21
-6.54258
0
LINE
8
BLACK
6
CONTINUOUS
10
8.71786
20
-6.54258
11
8.70624
21
-6.52801
0
LINE
8
BLACK
6
CONTINUOUS
10
8.70624
20
-6.52801
11
8.69357
21
-6.51435
0
LINE
8
BLACK
6
CONTINUOUS
10
8.69357
20
-6.51435
11
8.67991
21
-6.50167
0
LINE
8
BLACK
6
CONTINUOUS
10
8.67991
20
-6.50167
11
8.66534
21
-6.49005
0
LINE
8
BLACK
6
CONTINUOUS
10
8.66534
20
-6.49005
11
8.64994
21
-6.47956
0
LINE
8
BLACK
6
CONTINUOUS
10
8.64994
20
-6.47956
11
8.6338
21
-6.47024
0
LINE
8
BLACK
6
CONTINUOUS
10
8.6338
20
-6.47024
11
8.61701
21
-6.46215
0
LINE
8
BLACK
6
CONTINUOUS
10
8.61701
20
-6.46215
11
8.59966
21
-6.45534
0
LINE
8
BLACK
6
CONTINUOUS
10
8.59966
20
-6.45534
11
8.58186
21
-6.44985
0
LINE
8
BLACK
6
CONTINUOUS
10
8.58186
20
-6.44985
11
8.56369
21
-6.44571
0
LINE
8
BLACK
6
CONTINUOUS
10
8.56369
20
-6.44571
11
8.54526
21
-6.44293
0
LINE
8
BLACK
6
CONTINUOUS
10
8.54526
20
-6.44293
11
8.52668
21
-6.44154
0
LINE
8
BLACK
6
CONTINUOUS
10
8.52668
20
-6.44154
11
8.51736
21
-6.44154
0
LINE
8
BLACK
6
CONTINUOUS
10
8.51736
20
-6.44154
11
8.02047
21
-6.44154
0
LINE
8
BLACK
6
CONTINUOUS
10
8.02047
20
-6.44154
11
8.01115
21
-6.44154
0
LINE
8
BLACK
6
CONTINUOUS
10
8.01115
20
-6.44154
11
7.99257
21
-6.44293
0
LINE
8
BLACK
6
CONTINUOUS
10
7.99257
20
-6.44293
11
7.97415
21
-6.44571
0
LINE
8
BLACK
6
CONTINUOUS
10
7.97415
20
-6.44571
11
7.95598
21
-6.44985
0
LINE
8
BLACK
6
CONTINUOUS
10
7.95598
20
-6.44985
11
7.93817
21
-6.45534
0
LINE
8
BLACK
6
CONTINUOUS
10
7.93817
20
-6.45534
11
7.92082
21
-6.46215
0
LINE
8
BLACK
6
CONTINUOUS
10
7.92082
20
-6.46215
11
7.90403
21
-6.47024
0
LINE
8
BLACK
6
CONTINUOUS
10
7.90403
20
-6.47024
11
7.8879
21
-6.47956
0
LINE
8
BLACK
6
CONTINUOUS
10
7.8879
20
-6.47956
11
7.8725
21
-6.49005
0
LINE
8
BLACK
6
CONTINUOUS
10
7.8725
20
-6.49005
11
7.85793
21
-6.50167
0
LINE
8
BLACK
6
CONTINUOUS
10
7.85793
20
-6.50167
11
7.84427
21
-6.51435
0
LINE
8
BLACK
6
CONTINUOUS
10
7.84427
20
-6.51435
11
7.83159
21
-6.52801
0
LINE
8
BLACK
6
CONTINUOUS
10
7.83159
20
-6.52801
11
7.81997
21
-6.54258
0
LINE
8
BLACK
6
CONTINUOUS
10
7.81997
20
-6.54258
11
7.80948
21
-6.55797
0
LINE
8
BLACK
6
CONTINUOUS
10
7.80948
20
-6.55797
11
7.80016
21
-6.57411
0
LINE
8
BLACK
6
CONTINUOUS
10
7.80016
20
-6.57411
11
7.79207
21
-6.5909
0
LINE
8
BLACK
6
CONTINUOUS
10
7.79207
20
-6.5909
11
7.78527
21
-6.60825
0
LINE
8
BLACK
6
CONTINUOUS
10
7.78527
20
-6.60825
11
7.77977
21
-6.62606
0
LINE
8
BLACK
6
CONTINUOUS
10
7.77977
20
-6.62606
11
7.77563
21
-6.64422
0
LINE
8
BLACK
6
CONTINUOUS
10
7.77563
20
-6.64422
11
7.77285
21
-6.66265
0
LINE
8
BLACK
6
CONTINUOUS
10
7.77285
20
-6.66265
11
7.77146
21
-6.68123
0
LINE
8
BLACK
6
CONTINUOUS
10
7.77146
20
-6.68123
11
7.77146
21
-6.69055
0
LINE
8
BLACK
6
CONTINUOUS
10
7.77146
20
-6.69055
11
7.77146
21
-6.91575
0
LINE
8
BLACK
6
CONTINUOUS
10
7.77146
20
-6.91575
11
7.77082
21
-6.92705
0
LINE
8
BLACK
6
CONTINUOUS
10
7.77082
20
-6.92705
11
7.76893
21
-6.93822
0
LINE
8
BLACK
6
CONTINUOUS
10
7.76893
20
-6.93822
11
7.7658
21
-6.9491
0
LINE
8
BLACK
6
CONTINUOUS
10
7.7658
20
-6.9491
11
7.76147
21
-6.95956
0
LINE
8
BLACK
6
CONTINUOUS
10
7.76147
20
-6.95956
11
7.75599
21
-6.96947
0
LINE
8
BLACK
6
CONTINUOUS
10
7.75599
20
-6.96947
11
7.74944
21
-6.9787
0
LINE
8
BLACK
6
CONTINUOUS
10
7.74944
20
-6.9787
11
7.7419
21
-6.98715
0
LINE
8
BLACK
6
CONTINUOUS
10
7.7419
20
-6.98715
11
7.73346
21
-6.99469
0
LINE
8
BLACK
6
CONTINUOUS
10
7.73346
20
-6.99469
11
7.72423
21
-7.00125
0
LINE
8
BLACK
6
CONTINUOUS
10
7.72423
20
-7.00125
11
7.71432
21
-7.00673
0
LINE
8
BLACK
6
CONTINUOUS
10
7.71432
20
-7.00673
11
7.70386
21
-7.01106
0
LINE
8
BLACK
6
CONTINUOUS
10
7.70386
20
-7.01106
11
7.69298
21
-7.0142
0
LINE
8
BLACK
6
CONTINUOUS
10
7.69298
20
-7.0142
11
7.68182
21
-7.0161
0
LINE
8
BLACK
6
CONTINUOUS
10
7.68182
20
-7.0161
11
7.67051
21
-7.01673
0
LINE
8
BLACK
6
CONTINUOUS
10
7.67051
20
-7.01673
11
7.67051
21
-7.01673
0
LINE
8
BLACK
6
CONTINUOUS
10
7.67051
20
-7.01673
11
7.67051
21
-7.01673
0
LINE
8
BLACK
6
CONTINUOUS
10
7.67051
20
-7.01673
11
2.49531
21
-7.01673
0
LINE
8
BLACK
6
CONTINUOUS
10
2.49531
20
-7.01673
11
2.48401
21
-7.0161
0
LINE
8
BLACK
6
CONTINUOUS
10
2.48401
20
-7.0161
11
2.47284
21
-7.0142
0
LINE
8
BLACK
6
CONTINUOUS
10
2.47284
20
-7.0142
11
2.46196
21
-7.01107
0
LINE
8
BLACK
6
CONTINUOUS
10
2.46196
20
-7.01107
11
2.4515
21
-7.00673
0
LINE
8
BLACK
6
CONTINUOUS
10
2.4515
20
-7.00673
11
2.44159
21
-7.00125
0
LINE
8
BLACK
6
CONTINUOUS
10
2.44159
20
-7.00125
11
2.43235
21
-6.9947
0
LINE
8
BLACK
6
CONTINUOUS
10
2.43235
20
-6.9947
11
2.42391
21
-6.98715
0
LINE
8
BLACK
6
CONTINUOUS
10
2.42391
20
-6.98715
11
2.41636
21
-6.97871
0
LINE
8
BLACK
6
CONTINUOUS
10
2.41636
20
-6.97871
11
2.40981
21
-6.96947
0
LINE
8
BLACK
6
CONTINUOUS
10
2.40981
20
-6.96947
11
2.40433
21
-6.95956
0
LINE
8
BLACK
6
CONTINUOUS
10
2.40433
20
-6.95956
11
2.4
21
-6.9491
0
LINE
8
BLACK
6
CONTINUOUS
10
2.4
20
-6.9491
11
2.39686
21
-6.93822
0
LINE
8
BLACK
6
CONTINUOUS
10
2.39686
20
-6.93822
11
2.39497
21
-6.92705
0
LINE
8
BLACK
6
CONTINUOUS
10
2.39497
20
-6.92705
11
2.39433
21
-6.91575
0
LINE
8
BLACK
6
CONTINUOUS
10
2.39433
20
-6.91575
11
2.39433
21
-6.91575
0
LINE
8
BLACK
6
CONTINUOUS
10
2.39433
20
-6.91575
11
2.39433
21
-6.09075
0
LINE
8
BLACK
6
CONTINUOUS
10
2.39433
20
-6.09075
11
2.39433
21
-6.09075
0
LINE
8
BLACK
6
CONTINUOUS
10
2.39433
20
-6.09075
11
2.39433
21
-6.08476
0
LINE
8
BLACK
6
CONTINUOUS
10
2.39433
20
-6.08476
11
2.39289
21
-6.07287
0
LINE
8
BLACK
6
CONTINUOUS
10
2.39289
20
-6.07287
11
2.39002
21
-6.06124
0
LINE
8
BLACK
6
CONTINUOUS
10
2.39002
20
-6.06124
11
2.38577
21
-6.05004
0
LINE
8
BLACK
6
CONTINUOUS
10
2.38577
20
-6.05004
11
2.38021
21
-6.03943
0
LINE
8
BLACK
6
CONTINUOUS
10
2.38021
20
-6.03943
11
2.3734
21
-6.02957
0
LINE
8
BLACK
6
CONTINUOUS
10
2.3734
20
-6.02957
11
2.36546
21
-6.02061
0
LINE
8
BLACK
6
CONTINUOUS
10
2.36546
20
-6.02061
11
2.35649
21
-6.01266
0
LINE
8
BLACK
6
CONTINUOUS
10
2.35649
20
-6.01266
11
2.34663
21
-6.00586
0
LINE
8
BLACK
6
CONTINUOUS
10
2.34663
20
-6.00586
11
2.33603
21
-6.00029
0
LINE
8
BLACK
6
CONTINUOUS
10
2.33603
20
-6.00029
11
2.32483
21
-5.99604
0
LINE
8
BLACK
6
CONTINUOUS
10
2.32483
20
-5.99604
11
2.3132
21
-5.99318
0
LINE
8
BLACK
6
CONTINUOUS
10
2.3132
20
-5.99318
11
2.3013
21
-5.99173
0
LINE
8
BLACK
6
CONTINUOUS
10
2.3013
20
-5.99173
11
2.29531
21
-5.99173
0
LINE
8
BLACK
6
CONTINUOUS
10
2.29531
20
-5.99173
11
2.12031
21
-5.99173
0
LINE
8
BLACK
6
CONTINUOUS
10
2.12031
20
-5.99173
11
2.10901
21
-5.9911
0
LINE
8
BLACK
6
CONTINUOUS
10
2.10901
20
-5.9911
11
2.09784
21
-5.9892
0
LINE
8
BLACK
6
CONTINUOUS
10
2.09784
20
-5.9892
11
2.08696
21
-5.98607
0
LINE
8
BLACK
6
CONTINUOUS
10
2.08696
20
-5.98607
11
2.0765
21
-5.98173
0
LINE
8
BLACK
6
CONTINUOUS
10
2.0765
20
-5.98173
11
2.06659
21
-5.97625
0
LINE
8
BLACK
6
CONTINUOUS
10
2.06659
20
-5.97625
11
2.05735
21
-5.9697
0
LINE
8
BLACK
6
CONTINUOUS
10
2.05735
20
-5.9697
11
2.04891
21
-5.96215
0
LINE
8
BLACK
6
CONTINUOUS
10
2.04891
20
-5.96215
11
2.04136
21
-5.95371
0
LINE
8
BLACK
6
CONTINUOUS
10
2.04136
20
-5.95371
11
2.03481
21
-5.94447
0
LINE
8
BLACK
6
CONTINUOUS
10
2.03481
20
-5.94447
11
2.02933
21
-5.93456
0
LINE
8
BLACK
6
CONTINUOUS
10
2.02933
20
-5.93456
11
2.025
21
-5.9241
0
LINE
8
BLACK
6
CONTINUOUS
10
2.025
20
-5.9241
11
2.02186
21
-5.91322
0
LINE
8
BLACK
6
CONTINUOUS
10
2.02186
20
-5.91322
11
2.01997
21
-5.90205
0
LINE
8
BLACK
6
CONTINUOUS
10
2.01997
20
-5.90205
11
2.01933
21
-5.89075
0
LINE
8
BLACK
6
CONTINUOUS
10
2.01933
20
-5.89075
11
2.01933
21
-5.89075
0
LINE
8
BLACK
6
CONTINUOUS
10
2.01933
20
-5.89075
11
2.01933
21
-2.64173
0
LINE
8
BLACK
6
CONTINUOUS
10
2.01933
20
-2.64173
11
2.01933
21
-2.64173
0
LINE
8
BLACK
6
CONTINUOUS
10
2.01933
20
-2.64173
11
2.01933
21
-2.64172
0
LINE
8
BLACK
6
CONTINUOUS
10
2.01933
20
-2.64172
11
2.01948
21
-2.64138
0
LINE
8
BLACK
6
CONTINUOUS
10
2.01948
20
-2.64138
11
2.01962
21
-2.64104
0
LINE
8
BLACK
6
CONTINUOUS
10
2.01962
20
-2.64104
11
2.01962
21
-2.64103
0
LINE
8
BLACK
6
CONTINUOUS
10
2.01962
20
-2.64103
11
2.01962
21
-2.64103
0
LINE
8
BLACK
6
CONTINUOUS
10
2.01962
20
-2.64103
11
2.26962
21
-2.39497
0
LINE
8
BLACK
6
CONTINUOUS
10
2.26962
20
-2.39497
11
2.26997
21
-2.39483
0
LINE
8
BLACK
6
CONTINUOUS
10
2.26997
20
-2.39483
11
2.27031
21
-2.39469
0
LINE
8
BLACK
6
CONTINUOUS
10
2.27031
20
-2.39469
11
8.86809
21
-2.39469
0
LINE
8
BLACK
6
CONTINUOUS
10
2.27072
20
-2.39665
11
2.0213
21
-2.64214
0
LINE
8
BLACK
6
CONTINUOUS
10
2.0213
20
-2.64214
11
2.0213
21
-5.89075
0
LINE
8
BLACK
6
CONTINUOUS
10
2.0213
20
-5.89075
11
2.0213
21
-5.89075
0
LINE
8
BLACK
6
CONTINUOUS
10
2.0213
20
-5.89075
11
2.0213
21
-5.89674
0
LINE
8
BLACK
6
CONTINUOUS
10
2.0213
20
-5.89674
11
2.02274
21
-5.90863
0
LINE
8
BLACK
6
CONTINUOUS
10
2.02274
20
-5.90863
11
2.02561
21
-5.92026
0
LINE
8
BLACK
6
CONTINUOUS
10
2.02561
20
-5.92026
11
2.02986
21
-5.93146
0
LINE
8
BLACK
6
CONTINUOUS
10
2.02986
20
-5.93146
11
2.03542
21
-5.94207
0
LINE
8
BLACK
6
CONTINUOUS
10
2.03542
20
-5.94207
11
2.04223
21
-5.95192
0
LINE
8
BLACK
6
CONTINUOUS
10
2.04223
20
-5.95192
11
2.05017
21
-5.96089
0
LINE
8
BLACK
6
CONTINUOUS
10
2.05017
20
-5.96089
11
2.05914
21
-5.96883
0
LINE
8
BLACK
6
CONTINUOUS
10
2.05914
20
-5.96883
11
2.069
21
-5.97564
0
LINE
8
BLACK
6
CONTINUOUS
10
2.069
20
-5.97564
11
2.0796
21
-5.98121
0
LINE
8
BLACK
6
CONTINUOUS
10
2.0796
20
-5.98121
11
2.0908
21
-5.98545
0
LINE
8
BLACK
6
CONTINUOUS
10
2.0908
20
-5.98545
11
2.10243
21
-5.98832
0
LINE
8
BLACK
6
CONTINUOUS
10
2.10243
20
-5.98832
11
2.11433
21
-5.98976
0
LINE
8
BLACK
6
CONTINUOUS
10
2.11433
20
-5.98976
11
2.12031
21
-5.98976
0
LINE
8
BLACK
6
CONTINUOUS
10
2.12031
20
-5.98976
11
2.29531
21
-5.98976
0
LINE
8
BLACK
6
CONTINUOUS
10
2.29531
20
-5.98976
11
2.30662
21
-5.9904
0
LINE
8
BLACK
6
CONTINUOUS
10
2.30662
20
-5.9904
11
2.31779
21
-5.9923
0
LINE
8
BLACK
6
CONTINUOUS
10
2.31779
20
-5.9923
11
2.32867
21
-5.99543
0
LINE
8
BLACK
6
CONTINUOUS
10
2.32867
20
-5.99543
11
2.33913
21
-5.99976
0
LINE
8
BLACK
6
CONTINUOUS
10
2.33913
20
-5.99976
11
2.34904
21
-6.00524
0
LINE
8
BLACK
6
CONTINUOUS
10
2.34904
20
-6.00524
11
2.35828
21
-6.0118
0
LINE
8
BLACK
6
CONTINUOUS
10
2.35828
20
-6.0118
11
2.36672
21
-6.01934
0
LINE
8
BLACK
6
CONTINUOUS
10
2.36672
20
-6.01934
11
2.37427
21
-6.02779
0
LINE
8
BLACK
6
CONTINUOUS
10
2.37427
20
-6.02779
11
2.38082
21
-6.03702
0
LINE
8
BLACK
6
CONTINUOUS
10
2.38082
20
-6.03702
11
2.3863
21
-6.04693
0
LINE
8
BLACK
6
CONTINUOUS
10
2.3863
20
-6.04693
11
2.39063
21
-6.0574
0
LINE
8
BLACK
6
CONTINUOUS
10
2.39063
20
-6.0574
11
2.39377
21
-6.06828
0
LINE
8
BLACK
6
CONTINUOUS
10
2.39377
20
-6.06828
11
2.39566
21
-6.07944
0
LINE
8
BLACK
6
CONTINUOUS
10
2.39566
20
-6.07944
11
2.3963
21
-6.09075
0
LINE
8
BLACK
6
CONTINUOUS
10
2.3963
20
-6.09075
11
2.3963
21
-6.09075
0
LINE
8
BLACK
6
CONTINUOUS
10
2.3963
20
-6.09075
11
2.3963
21
-6.91575
0
LINE
8
BLACK
6
CONTINUOUS
10
2.3963
20
-6.91575
11
2.3963
21
-6.91575
0
LINE
8
BLACK
6
CONTINUOUS
10
2.3963
20
-6.91575
11
2.3963
21
-6.92174
0
LINE
8
BLACK
6
CONTINUOUS
10
2.3963
20
-6.92174
11
2.39774
21
-6.93363
0
LINE
8
BLACK
6
CONTINUOUS
10
2.39774
20
-6.93363
11
2.40061
21
-6.94526
0
LINE
8
BLACK
6
CONTINUOUS
10
2.40061
20
-6.94526
11
2.40486
21
-6.95646
0
LINE
8
BLACK
6
CONTINUOUS
10
2.40486
20
-6.95646
11
2.41042
21
-6.96707
0
LINE
8
BLACK
6
CONTINUOUS
10
2.41042
20
-6.96707
11
2.41723
21
-6.97692
0
LINE
8
BLACK
6
CONTINUOUS
10
2.41723
20
-6.97692
11
2.42517
21
-6.98589
0
LINE
8
BLACK
6
CONTINUOUS
10
2.42517
20
-6.98589
11
2.43414
21
-6.99383
0
LINE
8
BLACK
6
CONTINUOUS
10
2.43414
20
-6.99383
11
2.444
21
-7.00064
0
LINE
8
BLACK
6
CONTINUOUS
10
2.444
20
-7.00064
11
2.4546
21
-7.00621
0
LINE
8
BLACK
6
CONTINUOUS
10
2.4546
20
-7.00621
11
2.4658
21
-7.01045
0
LINE
8
BLACK
6
CONTINUOUS
10
2.4658
20
-7.01045
11
2.47743
21
-7.01332
0
LINE
8
BLACK
6
CONTINUOUS
10
2.47743
20
-7.01332
11
2.48933
21
-7.01476
0
LINE
8
BLACK
6
CONTINUOUS
10
2.48933
20
-7.01476
11
2.49531
21
-7.01476
0
LINE
8
BLACK
6
CONTINUOUS
10
2.49531
20
-7.01476
11
7.67051
21
-7.01476
0
LINE
8
BLACK
6
CONTINUOUS
10
7.67051
20
-7.01476
11
7.6765
21
-7.01476
0
LINE
8
BLACK
6
CONTINUOUS
10
7.6765
20
-7.01476
11
7.68839
21
-7.01332
0
LINE
8
BLACK
6
CONTINUOUS
10
7.68839
20
-7.01332
11
7.70002
21
-7.01045
0
LINE
8
BLACK
6
CONTINUOUS
10
7.70002
20
-7.01045
11
7.71121
21
-7.0062
0
LINE
8
BLACK
6
CONTINUOUS
10
7.71121
20
-7.0062
11
7.72182
21
-7.00063
0
LINE
8
BLACK
6
CONTINUOUS
10
7.72182
20
-7.00063
11
7.73167
21
-6.99383
0
LINE
8
BLACK
6
CONTINUOUS
10
7.73167
20
-6.99383
11
7.74063
21
-6.98588
0
LINE
8
BLACK
6
CONTINUOUS
10
7.74063
20
-6.98588
11
7.74857
21
-6.97692
0
LINE
8
BLACK
6
CONTINUOUS
10
7.74857
20
-6.97692
11
7.75538
21
-6.96706
0
LINE
8
BLACK
6
CONTINUOUS
10
7.75538
20
-6.96706
11
7.76094
21
-6.95645
0
LINE
8
BLACK
6
CONTINUOUS
10
7.76094
20
-6.95645
11
7.76518
21
-6.94525
0
LINE
8
BLACK
6
CONTINUOUS
10
7.76518
20
-6.94525
11
7.76805
21
-6.93363
0
LINE
8
BLACK
6
CONTINUOUS
10
7.76805
20
-6.93363
11
7.76949
21
-6.92174
0
LINE
8
BLACK
6
CONTINUOUS
10
7.76949
20
-6.92174
11
7.76949
21
-6.91575
0
LINE
8
BLACK
6
CONTINUOUS
10
7.76949
20
-6.91575
11
7.76949
21
-6.91575
0
LINE
8
BLACK
6
CONTINUOUS
10
7.76949
20
-6.91575
11
7.76949
21
-6.91575
0
LINE
8
BLACK
6
CONTINUOUS
10
7.76949
20
-6.91575
11
7.76949
21
-6.69055
0
LINE
8
BLACK
6
CONTINUOUS
10
7.76949
20
-6.69055
11
7.77019
21
-6.6718
0
LINE
8
BLACK
6
CONTINUOUS
10
7.77019
20
-6.6718
11
7.77229
21
-6.65314
0
LINE
8
BLACK
6
CONTINUOUS
10
7.77229
20
-6.65314
11
7.77578
21
-6.6347
0
LINE
8
BLACK
6
CONTINUOUS
10
7.77578
20
-6.6347
11
7.78064
21
-6.61657
0
LINE
8
BLACK
6
CONTINUOUS
10
7.78064
20
-6.61657
11
7.78684
21
-6.59886
0
LINE
8
BLACK
6
CONTINUOUS
10
7.78684
20
-6.59886
11
7.79434
21
-6.58165
0
LINE
8
BLACK
6
CONTINUOUS
10
7.79434
20
-6.58165
11
7.80311
21
-6.56506
0
LINE
8
BLACK
6
CONTINUOUS
10
7.80311
20
-6.56506
11
7.8131
21
-6.54917
0
LINE
8
BLACK
6
CONTINUOUS
10
7.8131
20
-6.54917
11
7.82425
21
-6.53407
0
LINE
8
BLACK
6
CONTINUOUS
10
7.82425
20
-6.53407
11
7.83649
21
-6.51984
0
LINE
8
BLACK
6
CONTINUOUS
10
7.83649
20
-6.51984
11
7.84976
21
-6.50657
0
LINE
8
BLACK
6
CONTINUOUS
10
7.84976
20
-6.50657
11
7.86399
21
-6.49432
0
LINE
8
BLACK
6
CONTINUOUS
10
7.86399
20
-6.49432
11
7.87909
21
-6.48318
0
LINE
8
BLACK
6
CONTINUOUS
10
7.87909
20
-6.48318
11
7.89498
21
-6.47319
0
LINE
8
BLACK
6
CONTINUOUS
10
7.89498
20
-6.47319
11
7.91157
21
-6.46442
0
LINE
8
BLACK
6
CONTINUOUS
10
7.91157
20
-6.46442
11
7.92878
21
-6.45692
0
LINE
8
BLACK
6
CONTINUOUS
10
7.92878
20
-6.45692
11
7.94649
21
-6.45072
0
LINE
8
BLACK
6
CONTINUOUS
10
7.94649
20
-6.45072
11
7.96462
21
-6.44586
0
LINE
8
BLACK
6
CONTINUOUS
10
7.96462
20
-6.44586
11
7.98307
21
-6.44237
0
LINE
8
BLACK
6
CONTINUOUS
10
7.98307
20
-6.44237
11
8.00172
21
-6.44027
0
LINE
8
BLACK
6
CONTINUOUS
10
8.00172
20
-6.44027
11
8.02047
21
-6.43957
0
LINE
8
BLACK
6
CONTINUOUS
10
8.02047
20
-6.43957
11
8.51736
21
-6.43957
0
LINE
8
BLACK
6
CONTINUOUS
10
8.51736
20
-6.43957
11
8.53612
21
-6.44027
0
LINE
8
BLACK
6
CONTINUOUS
10
8.53612
20
-6.44027
11
8.55477
21
-6.44237
0
LINE
8
BLACK
6
CONTINUOUS
10
8.55477
20
-6.44237
11
8.57321
21
-6.44586
0
LINE
8
BLACK
6
CONTINUOUS
10
8.57321
20
-6.44586
11
8.59134
21
-6.45072
0
LINE
8
BLACK
6
CONTINUOUS
10
8.59134
20
-6.45072
11
8.60906
21
-6.45692
0
LINE
8
BLACK
6
CONTINUOUS
10
8.60906
20
-6.45692
11
8.62626
21
-6.46442
0
LINE
8
BLACK
6
CONTINUOUS
10
8.62626
20
-6.46442
11
8.64285
21
-6.47319
0
LINE
8
BLACK
6
CONTINUOUS
10
8.64285
20
-6.47319
11
8.65875
21
-6.48318
0
LINE
8
BLACK
6
CONTINUOUS
10
8.65875
20
-6.48318
11
8.67385
21
-6.49432
0
LINE
8
BLACK
6
CONTINUOUS
10
8.67385
20
-6.49432
11
8.68807
21
-6.50657
0
LINE
8
BLACK
6
CONTINUOUS
10
8.68807
20
-6.50657
11
8.70135
21
-6.51984
0
LINE
8
BLACK
6
CONTINUOUS
10
8.70135
20
-6.51984
11
8.71359
21
-6.53407
0
LINE
8
BLACK
6
CONTINUOUS
10
8.71359
20
-6.53407
11
8.72474
21
-6.54917
0
LINE
8
BLACK
6
CONTINUOUS
10
8.72474
20
-6.54917
11
8.73472
21
-6.56506
0
LINE
8
BLACK
6
CONTINUOUS
10
8.73472
20
-6.56506
11
8.74349
21
-6.58165
0
LINE
8
BLACK
6
CONTINUOUS
10
8.74349
20
-6.58165
11
8.751
21
-6.59886
0
LINE
8
BLACK
6
CONTINUOUS
10
8.751
20
-6.59886
11
8.7572
21
-6.61657
0
LINE
8
BLACK
6
CONTINUOUS
10
8.7572
20
-6.61657
11
8.76205
21
-6.6347
0
LINE
8
BLACK
6
CONTINUOUS
10
8.76205
20
-6.6347
11
8.76554
21
-6.65314
0
LINE
8
BLACK
6
CONTINUOUS
10
8.76554
20
-6.65314
11
8.76764
21
-6.6718
0
LINE
8
BLACK
6
CONTINUOUS
10
8.76764
20
-6.6718
11
8.76835
21
-6.69055
0
LINE
8
BLACK
6
CONTINUOUS
10
8.76835
20
-6.69055
11
8.76835
21
-6.91575
0
LINE
8
BLACK
6
CONTINUOUS
10
8.76835
20
-6.91575
11
8.76835
21
-6.91575
0
LINE
8
BLACK
6
CONTINUOUS
10
8.76835
20
-6.91575
11
8.76835
21
-6.91575
0
LINE
8
BLACK
6
CONTINUOUS
10
8.76835
20
-6.91575
11
8.76835
21
-6.92174
0
LINE
8
BLACK
6
CONTINUOUS
10
8.76835
20
-6.92174
11
8.76979
21
-6.93363
0
LINE
8
BLACK
6
CONTINUOUS
10
8.76979
20
-6.93363
11
8.77265
21
-6.94525
0
LINE
8
BLACK
6
CONTINUOUS
10
8.77265
20
-6.94525
11
8.77689
21
-6.95645
0
LINE
8
BLACK
6
CONTINUOUS
10
8.77689
20
-6.95645
11
8.78246
21
-6.96706
0
LINE
8
BLACK
6
CONTINUOUS
10
8.78246
20
-6.96706
11
8.78926
21
-6.97692
0
LINE
8
BLACK
6
CONTINUOUS
10
8.78926
20
-6.97692
11
8.7972
21
-6.98588
0
LINE
8
BLACK
6
CONTINUOUS
10
8.7972
20
-6.98588
11
8.80616
21
-6.99383
0
LINE
8
BLACK
6
CONTINUOUS
10
8.80616
20
-6.99383
11
8.81602
21
-7.00063
0
LINE
8
BLACK
6
CONTINUOUS
10
8.81602
20
-7.00063
11
8.82662
21
-7.0062
0
LINE
8
BLACK
6
CONTINUOUS
10
8.82662
20
-7.0062
11
8.83782
21
-7.01045
0
LINE
8
BLACK
6
CONTINUOUS
10
8.83782
20
-7.01045
11
8.84945
21
-7.01332
0
LINE
8
BLACK
6
CONTINUOUS
10
8.84945
20
-7.01332
11
8.86133
21
-7.01476
0
LINE
8
BLACK
6
CONTINUOUS
10
8.86133
20
-7.01476
11
8.86732
21
-7.01476
0
LINE
8
BLACK
6
CONTINUOUS
10
8.86732
20
-7.01476
11
14.0425
21
-7.01476
0
LINE
8
BLACK
6
CONTINUOUS
10
14.0425
20
-7.01476
11
14.0485
21
-7.01476
0
LINE
8
BLACK
6
CONTINUOUS
10
14.0485
20
-7.01476
11
14.0604
21
-7.01332
0
LINE
8
BLACK
6
CONTINUOUS
10
14.0604
20
-7.01332
11
14.072
21
-7.01045
0
LINE
8
BLACK
6
CONTINUOUS
10
14.072
20
-7.01045
11
14.0832
21
-7.0062
0
LINE
8
BLACK
6
CONTINUOUS
10
14.0832
20
-7.0062
11
14.0938
21
-7.00064
0
LINE
8
BLACK
6
CONTINUOUS
10
14.0938
20
-7.00064
11
14.1037
21
-6.99383
0
LINE
8
BLACK
6
CONTINUOUS
10
14.1037
20
-6.99383
11
14.1127
21
-6.98589
0
LINE
8
BLACK
6
CONTINUOUS
10
14.1127
20
-6.98589
11
14.1206
21
-6.97692
0
LINE
8
BLACK
6
CONTINUOUS
10
14.1206
20
-6.97692
11
14.1274
21
-6.96707
0
LINE
8
BLACK
6
CONTINUOUS
10
14.1274
20
-6.96707
11
14.133
21
-6.95646
0
LINE
8
BLACK
6
CONTINUOUS
10
14.133
20
-6.95646
11
14.1372
21
-6.94526
0
LINE
8
BLACK
6
CONTINUOUS
10
14.1372
20
-6.94526
11
14.1401
21
-6.93363
0
LINE
8
BLACK
6
CONTINUOUS
10
14.1401
20
-6.93363
11
14.1415
21
-6.92174
0
LINE
8
BLACK
6
CONTINUOUS
10
14.1415
20
-6.92174
11
14.1415
21
-6.91575
0
LINE
8
BLACK
6
CONTINUOUS
10
14.1415
20
-6.91575
11
14.1415
21
-6.09075
0
LINE
8
BLACK
6
CONTINUOUS
10
14.1415
20
-6.09075
11
14.1415
21
-6.09075
0
LINE
8
BLACK
6
CONTINUOUS
10
14.1415
20
-6.09075
11
14.1422
21
-6.07944
0
LINE
8
BLACK
6
CONTINUOUS
10
14.1422
20
-6.07944
11
14.1441
21
-6.06828
0
LINE
8
BLACK
6
CONTINUOUS
10
14.1441
20
-6.06828
11
14.1472
21
-6.0574
0
LINE
8
BLACK
6
CONTINUOUS
10
14.1472
20
-6.0574
11
14.1515
21
-6.04693
0
LINE
8
BLACK
6
CONTINUOUS
10
14.1515
20
-6.04693
11
14.157
21
-6.03702
0
LINE
8
BLACK
6
CONTINUOUS
10
14.157
20
-6.03702
11
14.1636
21
-6.02779
0
LINE
8
BLACK
6
CONTINUOUS
10
14.1636
20
-6.02779
11
14.1711
21
-6.01934
0
LINE
8
BLACK
6
CONTINUOUS
10
14.1711
20
-6.01934
11
14.1796
21
-6.0118
0
LINE
8
BLACK
6
CONTINUOUS
10
14.1796
20
-6.0118
11
14.1888
21
-6.00524
0
LINE
8
BLACK
6
CONTINUOUS
10
14.1888
20
-6.00524
11
14.1987
21
-5.99977
0
LINE
8
BLACK
6
CONTINUOUS
10
14.1987
20
-5.99977
11
14.2092
21
-5.99543
0
LINE
8
BLACK
6
CONTINUOUS
10
14.2092
20
-5.99543
11
14.22
21
-5.9923
0
LINE
8
BLACK
6
CONTINUOUS
10
14.22
20
-5.9923
11
14.2312
21
-5.9904
0
LINE
8
BLACK
6
CONTINUOUS
10
14.2312
20
-5.9904
11
14.2425
21
-5.98976
0
LINE
8
BLACK
6
CONTINUOUS
10
14.2425
20
-5.98976
11
14.2426
21
-5.9898
0
LINE
8
BLACK
6
CONTINUOUS
10
14.2426
20
-5.9898
11
14.2427
21
-5.98976
0
LINE
8
BLACK
6
CONTINUOUS
10
14.2427
20
-5.98976
11
14.4177
21
-5.98976
0
LINE
8
BLACK
6
CONTINUOUS
10
14.4177
20
-5.98976
11
14.4237
21
-5.98976
0
LINE
8
BLACK
6
CONTINUOUS
10
14.4237
20
-5.98976
11
14.4356
21
-5.98832
0
LINE
8
BLACK
6
CONTINUOUS
10
14.4356
20
-5.98832
11
14.4472
21
-5.98545
0
LINE
8
BLACK
6
CONTINUOUS
10
14.4472
20
-5.98545
11
14.4584
21
-5.9812
0
LINE
8
BLACK
6
CONTINUOUS
10
14.4584
20
-5.9812
11
14.469
21
-5.97564
0
LINE
8
BLACK
6
CONTINUOUS
10
14.469
20
-5.97564
11
14.4789
21
-5.96883
0
LINE
8
BLACK
6
CONTINUOUS
10
14.4789
20
-5.96883
11
14.4879
21
-5.96089
0
LINE
8
BLACK
6
CONTINUOUS
10
14.4879
20
-5.96089
11
14.4958
21
-5.95192
0
LINE
8
BLACK
6
CONTINUOUS
10
14.4958
20
-5.95192
11
14.5026
21
-5.94207
0
LINE
8
BLACK
6
CONTINUOUS
10
14.5026
20
-5.94207
11
14.5082
21
-5.93146
0
LINE
8
BLACK
6
CONTINUOUS
10
14.5082
20
-5.93146
11
14.5124
21
-5.92026
0
LINE
8
BLACK
6
CONTINUOUS
10
14.5124
20
-5.92026
11
14.5153
21
-5.90863
0
LINE
8
BLACK
6
CONTINUOUS
10
14.5153
20
-5.90863
11
14.5167
21
-5.89674
0
LINE
8
BLACK
6
CONTINUOUS
10
14.5167
20
-5.89674
11
14.5167
21
-5.89075
0
LINE
8
BLACK
6
CONTINUOUS
10
14.5167
20
-5.89075
11
14.5167
21
-2.64214
0
LINE
8
BLACK
6
CONTINUOUS
10
14.5167
20
-2.64214
11
14.2673
21
-2.39665
0
LINE
8
BLACK
6
CONTINUOUS
10
14.2673
20
-2.39665
11
8.86809
21
-2.39665
0
LINE
8
BLACK
6
CONTINUOUS
10
8.86809
20
-2.39665
11
2.27072
21
-2.39665
  0
ENDSEC
  0
EOF
